<?xml version="1.0" encoding="utf-8"?>
<!-- Generator: Adobe Illustrator 24.0.2, SVG Export Plug-In . SVG Version: 6.00 Build 0)  -->
<svg version="1.1" id="Слой_1" xmlns="http://www.w3.org/2000/svg" xmlns:xlink="http://www.w3.org/1999/xlink" x="0px" y="0px"
	 viewBox="0 0 210.6 82.2" style="enable-background:new 0 0 210.6 82.2;" xml:space="preserve">
<style type="text/css">
	.st0{fill:#FFFFFF;}
	.st1{enable-background:new    ;}
</style>
<g>
	<g>
		<g>
			<path class="st0" d="M100.3,11.5l-1.2-1.2c-0.3-0.3-0.6-0.4-1-0.3c-1.3,0.3-4.7,0.4-5.9-5.3c0,0-0.3-1.9,1.8-0.6
				c0,0,1.9,2.1,3.6,0.7c0.3-0.3,0.5-0.5,0.5-0.8c0.3-1.1-1.5-2.5-1.5-2.5l0,0c-0.1-0.1-0.7-0.9-0.5-1.3c0.3-0.5,1.5-0.2,1.9-0.2
				c2.4,0.3,4.2,1.7,4.7,3.6c0.2,0.7,0.1,1.4,0,2c-0.1,0.3,0,0.7,0.2,0.9l1.3,1.6c0.4,0.5,0.3,1.1-0.1,1.5l-2.2,1.9
				C101.3,12,100.7,11.9,100.3,11.5z"/>
		</g>
		<g>
			<path class="st0" d="M110.3,14.1l1.2,1.2c0.3,0.3,0.6,0.4,1,0.3c1.3-0.3,4.7-0.4,5.9,5.3c0,0,0.3,1.9-1.8,0.6
				c0,0-1.9-2.1-3.6-0.7c-0.3,0.3-0.5,0.5-0.5,0.8c-0.3,1.1,1.5,2.5,1.5,2.5l0,0c0.1,0.1,0.7,0.9,0.5,1.3c-0.3,0.5-1.5,0.2-1.9,0.2
				c-2.4-0.3-4.2-1.7-4.7-3.6c-0.2-0.7-0.1-1.4,0-2c0.1-0.3,0-0.7-0.2-0.9l-1.3-1.6c-0.4-0.5-0.3-1.1,0.1-1.5l2.2-1.9
				C109.3,13.7,109.9,13.7,110.3,14.1z"/>
		</g>
		<g>
			<path class="st0" d="M102.8,13.6l6.3-6.3c0.3-0.3,0.5-0.7,0.5-1.2V4.5c0-0.6,0.3-1.2,0.9-1.5l5.1-2.5c0.6-0.3,1.4-0.2,1.9,0.3
				l0.1,0.1c0.5,0.5,0.7,1.3,0.3,1.9l-2.4,4.8c-0.3,0.6-0.9,0.9-1.5,0.9l-1.8,0c-0.4,0-0.9,0.2-1.2,0.5l-6.6,6.7
				c-0.5,0.5-0.4,1.2,0.1,1.6l0,0c0.5,0.4,0.6,1.2,0.1,1.6l-5.8,5.8c-0.4,0.3-0.4,0.3-0.9,0.5c-1.7,0.6-7.1,0.8-5.3-5.4
				c0,0,0.2-0.5,0.4-0.7l4.8-5c1-1,2-1.1,2.6-0.5l0,0C101.2,14.3,102.2,14.2,102.8,13.6z"/>
		</g>
	</g>
	<g class="st1">
		<path class="st0" d="M47.3,55.8V37.7h4.5c1.1,0,2,0.2,2.6,0.6c0.6,0.4,1.1,1,1.4,1.7s0.4,1.6,0.4,2.7c0,1-0.2,1.8-0.5,2.5
			s-0.8,1.2-1.5,1.6c-0.7,0.4-1.5,0.6-2.5,0.6h-2v8.4H47.3z M49.9,45.6H51c0.7,0,1.3-0.1,1.7-0.2s0.7-0.5,0.9-0.9s0.3-1,0.3-1.7
			c0-0.9-0.1-1.5-0.2-2c-0.1-0.5-0.4-0.8-0.8-1c-0.4-0.2-1-0.3-1.9-0.3h-1.2V45.6z"/>
		<path class="st0" d="M57.8,58.5v-1.9c0.8,0.1,1.4,0.1,1.8,0c0.4-0.1,0.7-0.2,0.9-0.5s0.3-0.5,0.3-0.9c0-0.4,0-0.9-0.1-1.4
			l-3.6-16.1h2.4l1.5,7.7l0.9,5.7l0.8-5.7l1.4-7.7h2.4l-3.2,16.1c-0.1,0.7-0.3,1.4-0.4,1.9c-0.1,0.6-0.2,1-0.4,1.4
			c-0.2,0.4-0.4,0.7-0.8,0.9c-0.3,0.2-0.8,0.4-1.4,0.4C59.6,58.6,58.8,58.6,57.8,58.5z"/>
		<path class="st0" d="M72.7,56c-1.3,0-2.3-0.3-3-0.8c-0.7-0.5-1.2-1.3-1.5-2.2c-0.3-0.9-0.4-1.9-0.4-3v-6.4c0-1.2,0.1-2.3,0.4-3.2
			c0.3-0.9,0.8-1.6,1.5-2.1c0.7-0.5,1.7-0.7,3-0.7c1.1,0,2,0.2,2.7,0.6c0.7,0.4,1.1,1,1.4,1.8c0.3,0.8,0.4,1.7,0.4,2.8v1.4h-2.4
			v-1.3c0-0.7,0-1.3-0.1-1.8c-0.1-0.5-0.2-0.9-0.5-1.2c-0.3-0.3-0.8-0.4-1.5-0.4c-0.7,0-1.2,0.2-1.6,0.5c-0.3,0.3-0.5,0.7-0.6,1.3
			c-0.1,0.6-0.1,1.2-0.1,2v7.2c0,0.9,0.1,1.6,0.2,2.2c0.1,0.5,0.4,0.9,0.7,1.1c0.3,0.2,0.8,0.3,1.4,0.3c0.7,0,1.2-0.2,1.5-0.5
			c0.3-0.3,0.5-0.7,0.6-1.3c0.1-0.5,0.1-1.2,0.1-1.9v-1.3h2.4v1.3c0,1.1-0.1,2.1-0.4,2.9c-0.3,0.8-0.7,1.5-1.4,2
			C74.8,55.7,73.9,56,72.7,56z"/>
		<path class="st0" d="M81.6,55.8V39.6h-3.1v-1.9h8.5v1.9h-3v16.2H81.6z"/>
		<path class="st0" d="M88.9,55.8V37.7h2.2v12.5l5.3-12.5h1.8v18.1H96V43.1l-5.2,12.7H88.9z"/>
		<path class="st0" d="M101,55.8l0.3-18.1h2.5l3.2,14.7l3.2-14.7h2.5l0.3,18.1h-2l-0.2-13.1l-3.1,13.1h-1.4l-3-13.1L103,55.8H101z"
			/>
		<path class="st0" d="M115.8,55.8V37.7h10v18.1h-2.5V39.5h-4.9v16.3H115.8z"/>
		<path class="st0" d="M128.5,55.8V37.7h4.5c1.1,0,2,0.2,2.6,0.6c0.6,0.4,1.1,1,1.4,1.7s0.4,1.6,0.4,2.7c0,1-0.2,1.8-0.5,2.5
			s-0.8,1.2-1.5,1.6s-1.5,0.6-2.5,0.6h-2v8.4H128.5z M131.1,45.6h1.2c0.7,0,1.3-0.1,1.7-0.2c0.4-0.2,0.7-0.5,0.9-0.9s0.3-1,0.3-1.7
			c0-0.9-0.1-1.5-0.2-2c-0.1-0.5-0.4-0.8-0.8-1c-0.4-0.2-1-0.3-1.9-0.3h-1.2V45.6z"/>
		<path class="st0" d="M143.9,56c-1.2,0-2.2-0.2-2.9-0.7c-0.7-0.5-1.3-1.2-1.6-2c-0.3-0.9-0.5-1.9-0.5-3.1v-6.9
			c0-1.2,0.2-2.2,0.5-3.1c0.3-0.9,0.8-1.5,1.6-2s1.7-0.7,2.9-0.7c1.2,0,2.2,0.2,2.9,0.7c0.7,0.5,1.2,1.1,1.6,2
			c0.3,0.8,0.5,1.9,0.5,3.1v6.9c0,1.2-0.2,2.2-0.5,3.1c-0.3,0.9-0.8,1.6-1.6,2C146.1,55.7,145.1,56,143.9,56z M143.9,54
			c0.7,0,1.2-0.1,1.5-0.4c0.3-0.3,0.6-0.7,0.7-1.2c0.1-0.5,0.2-1.1,0.2-1.8v-7.9c0-0.7-0.1-1.2-0.2-1.7c-0.1-0.5-0.3-0.9-0.7-1.1
			c-0.3-0.3-0.8-0.4-1.5-0.4c-0.7,0-1.2,0.1-1.5,0.4c-0.3,0.3-0.6,0.6-0.7,1.1c-0.1,0.5-0.2,1.1-0.2,1.7v7.9c0,0.7,0.1,1.3,0.2,1.8
			c0.1,0.5,0.4,0.9,0.7,1.2C142.7,53.9,143.2,54,143.9,54z"/>
		<path class="st0" d="M156,56.6v-3c-0.1,0-0.2,0-0.4,0c-0.2,0-0.3,0-0.4,0c-0.9,0-1.7-0.1-2.3-0.4c-0.6-0.3-1.1-0.8-1.4-1.5
			c-0.3-0.7-0.5-1.7-0.5-2.9v-4.5c0-1.2,0.2-2.2,0.5-2.9s0.8-1.2,1.4-1.5s1.3-0.5,2.1-0.5c0.2,0,0.4,0,0.6,0c0.2,0,0.4,0,0.5,0v-3.5
			h2.5v3.5c0.1,0,0.3,0,0.6,0s0.4,0,0.6,0c0.8,0,1.6,0.2,2.2,0.5s1,0.8,1.3,1.5c0.3,0.7,0.5,1.7,0.5,2.8v4.5c0,1.2-0.2,2.2-0.5,2.9
			s-0.7,1.2-1.3,1.5c-0.6,0.3-1.2,0.4-1.9,0.4c-0.2,0-0.5,0-0.7,0s-0.5,0-0.7,0v3H156z M155.3,52.1c0.1,0,0.2,0,0.4,0s0.2,0,0.3,0
			v-11c-0.1,0-0.3,0-0.4,0c-0.1,0-0.3,0-0.4,0c-0.5,0-0.9,0.1-1.2,0.3c-0.3,0.2-0.5,0.5-0.6,1s-0.2,1.1-0.2,2v4.5
			c0,0.9,0.1,1.5,0.2,2c0.1,0.5,0.3,0.8,0.6,1C154.3,52,154.7,52.1,155.3,52.1z M159.3,52.1c0.5,0,0.9-0.1,1.2-0.3
			c0.3-0.2,0.5-0.5,0.6-1c0.1-0.5,0.2-1.1,0.2-2v-4.5c0-0.9-0.1-1.5-0.2-2c-0.1-0.5-0.3-0.8-0.6-1c-0.3-0.2-0.7-0.3-1.3-0.3
			c-0.1,0-0.3,0-0.4,0c-0.1,0-0.3,0-0.4,0v11c0.1,0,0.2,0,0.4,0S159.2,52.1,159.3,52.1z"/>
	</g>
	<g>
		<polygon class="st0" points="210.6,82.2 0,82.2 0,11.1 79.1,11.1 79.1,15.1 4,15.1 4,78.2 206.6,78.2 206.6,15.1 129.4,15.1 
			129.4,11.1 210.6,11.1 		"/>
	</g>
</g>
</svg>
