<svg width="50" height="50" viewBox="0 0 50 50" fill="none" xmlns="http://www.w3.org/2000/svg">
<path d="M42.8271 11.6553L37.6269 6.45996C36.9922 5.8252 36.1426 5.46875 35.2441 5.46875C34.3457 5.46875 33.4961 5.82031 32.8613 6.45996L27.2607 12.0508C26.626 12.6855 26.2695 13.54 26.2695 14.4385C26.2695 15.3418 26.6211 16.1865 27.2607 16.8262L31.6357 21.2061C30.6391 23.5283 29.2071 25.6382 27.417 27.4219C25.625 29.2236 23.5303 30.6445 21.2061 31.6504L16.8311 27.2705C16.1963 26.6357 15.3467 26.2793 14.4482 26.2793C14.0051 26.2777 13.5661 26.3645 13.1569 26.5347C12.7477 26.7049 12.3767 26.9551 12.0654 27.2705L6.45996 32.8613C5.8252 33.4961 5.46875 34.3506 5.46875 35.249C5.46875 36.1523 5.82031 36.9971 6.45996 37.6367L11.6553 42.832C12.7393 43.916 14.2334 44.5361 15.7666 44.5361C16.084 44.5361 16.3916 44.5117 16.7041 44.458C23.1689 43.3936 29.585 39.9512 34.7656 34.7754C39.9414 29.5898 43.3789 23.1738 44.4531 16.7041C44.7607 14.8682 44.1455 12.9785 42.8271 11.6553ZM40.9912 16.123C40.0391 21.8799 36.9434 27.6221 32.2803 32.2852C27.6172 36.9482 21.8799 40.0439 16.123 40.9961C15.4004 41.1182 14.6582 40.874 14.1309 40.3516L9.02832 35.249L14.4385 29.834L20.2881 35.6934L20.332 35.7373L21.3867 35.3467C24.5846 34.1709 27.4886 32.3139 29.8974 29.9042C32.3062 27.4945 34.1623 24.5899 35.3369 21.3916L35.7275 20.3369L29.8291 14.4434L35.2393 9.02832L40.3418 14.1309C40.8691 14.6582 41.1133 15.4004 40.9912 16.123Z" fill="black"/>
</svg>
