<svg width="50" height="50" viewBox="0 0 50 50" fill="none" xmlns="http://www.w3.org/2000/svg">
<path d="M38.0188 27.9375C36.3813 31.2562 34.1625 34.5625 31.8938 37.5312C29.7416 40.3301 27.4403 43.011 25 45.5625C22.5596 43.0111 20.2584 40.3301 18.1063 37.5312C15.8375 34.5625 13.6188 31.2562 11.9813 27.9375C10.325 24.5844 9.375 21.4438 9.375 18.75C9.375 14.606 11.0212 10.6317 13.9515 7.70146C16.8817 4.7712 20.856 3.125 25 3.125C29.144 3.125 33.1183 4.7712 36.0485 7.70146C38.9788 10.6317 40.625 14.606 40.625 18.75C40.625 21.4438 39.6719 24.5844 38.0188 27.9375ZM25 50C25 50 43.75 32.2313 43.75 18.75C43.75 13.7772 41.7746 9.00805 38.2583 5.49175C34.7419 1.97544 29.9728 0 25 0C20.0272 0 15.2581 1.97544 11.7417 5.49175C8.22544 9.00805 6.25 13.7772 6.25 18.75C6.25 32.2313 25 50 25 50Z" fill="black"/>
<path d="M25 25C23.3424 25 21.7527 24.3415 20.5806 23.1694C19.4085 21.9973 18.75 20.4076 18.75 18.75C18.75 17.0924 19.4085 15.5027 20.5806 14.3306C21.7527 13.1585 23.3424 12.5 25 12.5C26.6576 12.5 28.2473 13.1585 29.4194 14.3306C30.5915 15.5027 31.25 17.0924 31.25 18.75C31.25 20.4076 30.5915 21.9973 29.4194 23.1694C28.2473 24.3415 26.6576 25 25 25ZM25 28.125C27.4864 28.125 29.871 27.1373 31.6291 25.3791C33.3873 23.621 34.375 21.2364 34.375 18.75C34.375 16.2636 33.3873 13.879 31.6291 12.1209C29.871 10.3627 27.4864 9.375 25 9.375C22.5136 9.375 20.129 10.3627 18.3709 12.1209C16.6127 13.879 15.625 16.2636 15.625 18.75C15.625 21.2364 16.6127 23.621 18.3709 25.3791C20.129 27.1373 22.5136 28.125 25 28.125Z" fill="black"/>
</svg>
