<svg width="50" height="50" viewBox="0 0 50 50" fill="none" xmlns="http://www.w3.org/2000/svg">
<path d="M43.75 9.375H6.25C5.4212 9.375 4.62634 9.70424 4.04029 10.2903C3.45424 10.8763 3.125 11.6712 3.125 12.5V37.5C3.125 38.3288 3.45424 39.1237 4.04029 39.7097C4.62634 40.2958 5.4212 40.625 6.25 40.625H43.75C44.5788 40.625 45.3737 40.2958 45.9597 39.7097C46.5458 39.1237 46.875 38.3288 46.875 37.5V12.5C46.875 11.6712 46.5458 10.8763 45.9597 10.2903C45.3737 9.70424 44.5788 9.375 43.75 9.375ZM40.3125 12.5L25 23.0938L9.6875 12.5H40.3125ZM6.25 37.5V13.9219L24.1094 26.2812C24.3709 26.4627 24.6817 26.5599 25 26.5599C25.3183 26.5599 25.6291 26.4627 25.8906 26.2812L43.75 13.9219V37.5H6.25Z" fill="black"/>
</svg>
