<svg width="50" height="50" viewBox="0 0 50 50" fill="none" xmlns="http://www.w3.org/2000/svg">
<path d="M25 12.5C23.4548 12.5 21.9444 12.9582 20.6596 13.8166C19.3749 14.6751 18.3735 15.8952 17.7822 17.3228C17.1909 18.7503 17.0362 20.3212 17.3376 21.8366C17.6391 23.3521 18.3831 24.7442 19.4757 25.8368C20.5683 26.9294 21.9604 27.6734 23.4759 27.9749C24.9913 28.2763 26.5622 28.1216 27.9897 27.5303C29.4173 26.939 30.6374 25.9377 31.4959 24.6529C32.3543 23.3681 32.8125 21.8577 32.8125 20.3125C32.8125 18.2405 31.9894 16.2534 30.5243 14.7882C29.0591 13.3231 27.072 12.5 25 12.5ZM25 25C24.0729 25 23.1666 24.7251 22.3958 24.21C21.6249 23.6949 21.0241 22.9629 20.6693 22.1063C20.3145 21.2498 20.2217 20.3073 20.4026 19.398C20.5834 18.4887 21.0299 17.6535 21.6854 16.9979C22.341 16.3424 23.1762 15.8959 24.0855 15.7151C24.9948 15.5342 25.9373 15.627 26.7938 15.9818C27.6504 16.3366 28.3825 16.9374 28.8975 17.7083C29.4126 18.4791 29.6875 19.3854 29.6875 20.3125C29.6863 21.5553 29.192 22.7469 28.3132 23.6257C27.4344 24.5045 26.2428 24.9988 25 25Z" fill="black"/>
<path d="M25 3.125C20.6735 3.125 16.4442 4.40795 12.8469 6.8116C9.24959 9.21526 6.44581 12.6317 4.79014 16.6288C3.13448 20.6259 2.70128 25.0243 3.54533 29.2676C4.38938 33.5109 6.47277 37.4087 9.53205 40.468C12.5913 43.5272 16.4891 45.6106 20.7324 46.4547C24.9757 47.2987 29.3741 46.8655 33.3712 45.2099C37.3683 43.5542 40.7848 40.7504 43.1884 37.1531C45.5921 33.5558 46.875 29.3265 46.875 25C46.8684 19.2004 44.5616 13.6403 40.4607 9.53935C36.3597 5.43842 30.7996 3.13162 25 3.125ZM15.625 41.2141V39.0625C15.6263 37.8197 16.1205 36.6281 16.9993 35.7493C17.8781 34.8705 19.0697 34.3762 20.3125 34.375H29.6875C30.9303 34.3762 32.1219 34.8705 33.0007 35.7493C33.8795 36.6281 34.3738 37.8197 34.375 39.0625V41.2141C31.53 42.8753 28.2946 43.7508 25 43.7508C21.7055 43.7508 18.4701 42.8753 15.625 41.2141ZM37.4875 38.9469C37.4564 36.8974 36.6213 34.9422 35.1624 33.5025C33.7034 32.0628 31.7372 31.2539 29.6875 31.25H20.3125C18.2628 31.2539 16.2966 32.0628 14.8376 33.5025C13.3787 34.9422 12.5436 36.8974 12.5125 38.9469C9.67902 36.4168 7.68084 33.0857 6.78256 29.3948C5.88429 25.7038 6.12829 21.8271 7.48226 18.2779C8.83622 14.7287 11.2363 11.6745 14.3647 9.51964C17.493 7.36479 21.2021 6.21098 25.0008 6.21098C28.7995 6.21098 32.5086 7.36479 35.6369 9.51964C38.7653 11.6745 41.1654 14.7287 42.5193 18.2779C43.8733 21.8271 44.1173 25.7038 43.219 29.3948C42.3207 33.0857 40.3226 36.4168 37.4891 38.9469H37.4875Z" fill="black"/>
</svg>
